<svg viewBox="0 0 24 24" xmlns="http://www.w3.org/2000/svg" role="img" aria-labelledby="djangoTitle">
  <title id="djangoTitle">Django</title>
  <rect x="2" y="2" width="20" height="20" rx="4" fill="#092E20"/>
  <path d="M7.28 8.13h2.33v8.35c0 1.67-.13 2.47-.53 3.15-.37.65-.88 1.07-1.8 1.52l-2.17-1.03c.92-.44 1.43-.82 1.73-1.39.32-.58.44-1.25.44-2.98V8.13Zm2.33-3.63v2.4H7.28V4.5h2.33Zm3.63 3.63h2.33v5.37c0 1.84.27 2.55 1.3 2.55.6 0 1.02-.27 1.52-.87V8.13h2.33v9.62h-2.33v-1.1c-1.02.88-1.77 1.27-2.8 1.27-1.98 0-2.35-1.42-2.35-3.33V8.13Z" fill="#fff"/>
</svg>
