<svg viewBox="0 0 24 24" xmlns="http://www.w3.org/2000/svg" role="img" aria-labelledby="illustratorTitle">
  <title id="illustratorTitle">Illustrator</title>
  <rect x="1.5" y="1.5" width="21" height="21" rx="4" fill="#2B1200" stroke="#FF9A00" stroke-width="1.5"/>
  <path d="M7.72 16.5V10.2h2.48v6.3H7.72Zm1.24-7.1c-.36 0-.66-.11-.9-.33a1.08 1.08 0 0 1-.34-.8c0-.32.11-.58.34-.79.24-.22.54-.33.9-.33.37 0 .67.11.9.33.24.2.36.47.36.8 0 .31-.12.58-.35.8-.23.21-.54.32-.91.32Z" fill="#FF9A00"/>
  <path d="m13.28 16.5 2.54-6.3h2.1l2.52 6.3H18.3l-.5-1.42h-2.27L15 16.5h-1.72Zm2.6-2.76h1.45l-.72-2.08-.73 2.08Z" fill="#FF9A00"/>
</svg>
