<svg viewBox="0 0 24 24" xmlns="http://www.w3.org/2000/svg" role="img" aria-labelledby="photoshopTitle">
  <title id="photoshopTitle">Photoshop</title>
  <rect x="1.5" y="1.5" width="21" height="21" rx="4" fill="#001E36" stroke="#31A8FF" stroke-width="1.5"/>
  <path d="M7 16.5V7.5h3.6c1.1 0 1.94.26 2.52.78.59.51.88 1.23.88 2.16 0 .95-.3 1.69-.9 2.23-.6.53-1.45.8-2.57.8H9.18v2.98H7Zm2.18-4.72h1.16c.48 0 .85-.1 1.1-.31.26-.22.39-.53.39-.94 0-.39-.12-.68-.35-.88-.23-.2-.58-.3-1.05-.3H9.18v2.43Z" fill="#31A8FF"/>
  <path d="M14.6 16.5v-6.3h2.04v1.09c.24-.43.54-.75.91-.95.36-.21.78-.31 1.25-.31.13 0 .24 0 .35.02.11.01.21.03.31.06v1.92a3.3 3.3 0 0 0-.43-.08 3.4 3.4 0 0 0-.42-.03c-.56 0-1 .15-1.33.45-.32.3-.48.73-.48 1.29v2.84H14.6Z" fill="#31A8FF"/>
</svg>
