<svg viewBox="0 0 24 24" xmlns="http://www.w3.org/2000/svg" role="img" aria-labelledby="premiereTitle">
  <title id="premiereTitle">Premiere Pro</title>
  <rect x="1.5" y="1.5" width="21" height="21" rx="4" fill="#12002B" stroke="#9999FF" stroke-width="1.5"/>
  <path d="M7 16.5V7.5h3.65c1.1 0 1.93.25 2.5.76.58.5.87 1.21.87 2.12 0 .95-.3 1.69-.9 2.22-.6.53-1.45.8-2.55.8H9.17v3.1H7Zm2.17-4.83h1.16c.48 0 .84-.1 1.1-.31.25-.2.37-.5.37-.9 0-.4-.11-.69-.34-.89-.23-.2-.58-.3-1.04-.3H9.17v2.4Z" fill="#9999FF"/>
  <path d="M14.67 16.5v-6.3h1.93v.8c.26-.33.57-.58.93-.74.35-.16.74-.24 1.18-.24.9 0 1.6.29 2.1.88.49.57.74 1.37.74 2.4 0 1.01-.25 1.82-.76 2.42-.5.58-1.19.87-2.08.87-.4 0-.77-.08-1.1-.23-.32-.16-.61-.39-.87-.7v.84h-2.07Zm3.28-1.72c.44 0 .8-.14 1.06-.4.27-.28.4-.64.4-1.08 0-.45-.13-.81-.4-1.08a1.38 1.38 0 0 0-1.06-.42c-.43 0-.79.14-1.05.42-.27.27-.4.63-.4 1.08s.13.8.4 1.08c.26.26.62.4 1.05.4Z" fill="#9999FF"/>
</svg>
