<svg viewBox="0 0 24 24" xmlns="http://www.w3.org/2000/svg" role="img" aria-labelledby="pythonTitle">
  <title id="pythonTitle">Python</title>
  <path d="M11.98 2c-2.6 0-2.44 1.13-2.44 1.13l.01 1.17h2.48v.35H8.57S6.9 4.46 6.9 7.1c0 2.63 1.46 2.54 1.46 2.54h.87V8.42s-.05-1.46 1.43-1.46h2.47s1.39.02 1.39-1.35V3.38S14.73 2 11.98 2Zm-1.37.78c.25 0 .45.2.45.45s-.2.45-.45.45a.45.45 0 0 1 0-.9Z" fill="#3776AB"/>
  <path d="M12.02 22c2.6 0 2.44-1.13 2.44-1.13l-.01-1.17h-2.48v-.35h3.46s1.67.19 1.67-2.46c0-2.63-1.46-2.54-1.46-2.54h-.87v1.22s.05 1.46-1.43 1.46h-2.47s-1.39-.02-1.39 1.35v2.23S9.27 22 12.02 22Zm1.37-.78a.45.45 0 1 1 0-.9.45.45 0 0 1 0 .9Z" fill="#FFD43B"/>
  <path d="M12 7.72c-3.17 0-5.74.52-5.74 3.03v1.97h3.16v-.66c0-1.17 1-2.2 2.58-2.2h4.28c1.2 0 2.16-.99 2.16-2.2V5.7c0-2.5-2.1-3.7-5.72-3.7v2.3c3.03 0 2.8.53 2.8 1.5v1.56c0 1.1-.95 2.01-2.16 2.01H12v.35h.26Zm0 8.56c3.17 0 5.74-.52 5.74-3.03v-1.97h-3.16v.66c0 1.17-1 2.2-2.58 2.2H7.72c-1.2 0-2.16.99-2.16 2.2v1.97c0 2.5 2.1 3.7 5.72 3.7v-2.3c-3.03 0-2.8-.53-2.8-1.5v-1.56c0-1.1.95-2.01 2.16-2.01H12v-.35h-.26Z" fill="#646464" opacity=".22"/>
</svg>
