<svg viewBox="0 0 24 24" xmlns="http://www.w3.org/2000/svg" role="img" aria-labelledby="renderTitle">
  <title id="renderTitle">Render</title>
  <rect x="2" y="2" width="20" height="20" rx="4" fill="#111111"/>
  <path d="M7 17V7h4.5c2.2 0 3.62 1.25 3.62 3.26 0 1.4-.7 2.5-1.92 2.96L16 17h-2.58l-2.38-3.46H9.27V17H7Zm2.27-5.3h2.01c.98 0 1.55-.5 1.55-1.34 0-.85-.57-1.32-1.55-1.32H9.27v2.66Z" fill="#fff"/>
  <path d="M15.9 7h1.1a2 2 0 0 1 2 2v1.1h-1.77V9.7c0-.56-.44-1-1-1H15.9V7Zm1.33 5.57H19V15a2 2 0 0 1-2 2h-2.43v-1.77h1.66c.56 0 1-.44 1-1v-1.66Z" fill="#46E3B7"/>
</svg>
